<svg xmlns="http://www.w3.org/2000/svg" xmlns:xlink="http://www.w3.org/1999/xlink" width="636" zoomAndPan="magnify" viewBox="0 0 476.87997 104.999996" height="140" preserveAspectRatio="xMidYMid meet" version="1.0"><defs><g/><clipPath id="id1"><path d="M 17.53125 0.0117188 L 159.996094 0.0117188 L 159.996094 104.984375 L 17.53125 104.984375 Z M 17.53125 0.0117188 " clip-rule="nonzero"/></clipPath></defs><g clip-path="url(#id1)"><path fill="#8c52ff" d="M 87.085938 61.433594 C 86.476562 55.953125 84.441406 48.132812 82.710938 43.464844 C 82.710938 43.363281 82.609375 43.363281 82.609375 43.261719 C 82.609375 43.261719 77.121094 31.484375 61.257812 35.648438 C 56.375 36.867188 52.917969 41.128906 50.984375 46.410156 C 49.664062 50.0625 49.15625 54.125 49.257812 58.082031 C 49.359375 59.605469 49.5625 61.128906 49.867188 62.550781 C 49.867188 62.550781 49.867188 62.652344 49.867188 62.652344 C 50.375 64.988281 51.089844 67.117188 52.105469 68.945312 C 54.136719 72.703125 57.394531 75.34375 61.867188 75.851562 C 68.375 76.558594 72.441406 73.414062 74.476562 69.25 C 75.492188 67.117188 76 64.785156 76 62.652344 C 76.101562 60.417969 75.695312 58.488281 74.882812 56.96875 C 74.070312 55.546875 72.847656 54.632812 71.121094 54.9375 C 71.019531 55.039062 70.917969 55.039062 70.714844 55.039062 C 68.679688 55.039062 65.628906 57.472656 63.800781 60.417969 C 63.1875 61.535156 62.679688 62.652344 62.476562 63.667969 C 62.273438 64.582031 62.375 65.496094 62.679688 66.308594 C 63.289062 67.625 64.917969 68.742188 67.96875 69.148438 C 68.78125 69.25 69.289062 70.0625 69.1875 70.875 C 69.085938 71.6875 68.273438 72.195312 67.460938 72.09375 C 63.289062 71.484375 60.953125 69.757812 59.933594 67.523438 C 59.324219 66.105469 59.324219 64.582031 59.628906 63.058594 C 59.832031 61.636719 60.441406 60.214844 61.359375 58.894531 C 63.59375 55.242188 67.5625 52.09375 70.714844 52.09375 C 73.765625 51.484375 76.101562 53.007812 77.527344 55.648438 C 78.542969 57.472656 79.050781 60.011719 78.949219 62.652344 C 78.949219 65.292969 78.339844 68.03125 77.121094 70.570312 C 74.578125 75.75 69.59375 79.707031 61.5625 78.792969 C 58.511719 78.488281 55.96875 77.371094 53.832031 75.648438 C 53.527344 77.167969 53.527344 79.707031 54.035156 82.347656 C 54.546875 84.480469 55.359375 86.507812 56.679688 88.234375 C 57.902344 89.960938 59.628906 91.382812 61.96875 92.195312 C 66.238281 93.617188 72.542969 92.804688 81.492188 87.929688 C 82 87.015625 82.507812 86 83.019531 84.988281 C 86.273438 77.777344 87.898438 69.25 87.085938 61.433594 Z M 107.421875 2.957031 C 106.40625 2.957031 105.59375 3.363281 104.878906 3.972656 C 104.269531 4.582031 103.863281 5.496094 103.863281 6.511719 C 103.863281 7.425781 104.269531 8.339844 104.878906 8.949219 C 104.980469 8.949219 104.980469 8.949219 104.980469 9.050781 C 105.59375 9.558594 106.507812 9.964844 107.421875 9.964844 C 108.339844 9.964844 109.253906 9.558594 109.863281 8.949219 C 110.472656 8.339844 110.878906 7.425781 110.878906 6.511719 C 110.878906 5.496094 110.472656 4.582031 109.863281 3.972656 C 109.253906 3.363281 108.339844 2.957031 107.421875 2.957031 Z M 102.847656 1.941406 C 103.964844 0.726562 105.59375 0.015625 107.421875 0.015625 C 109.152344 0.015625 110.777344 0.726562 112 1.941406 C 113.117188 3.058594 113.828125 4.683594 113.828125 6.511719 C 113.828125 8.238281 113.117188 9.863281 112 11.078125 C 110.777344 12.195312 109.152344 12.90625 107.421875 12.90625 C 106.203125 12.90625 105.085938 12.601562 104.167969 12.09375 C 97.558594 20.417969 94.304688 31.484375 92.679688 40.722656 C 95.015625 35.140625 98.167969 29.554688 102.644531 25.394531 C 102.746094 25.292969 102.847656 25.191406 102.949219 25.191406 C 104.371094 23.871094 105.898438 22.652344 107.625 21.738281 C 107.726562 21.738281 107.726562 21.636719 107.828125 21.636719 C 108.441406 21.332031 109.050781 21.027344 109.761719 20.722656 C 111.796875 19.808594 114.03125 19.101562 116.269531 18.59375 C 124.40625 16.765625 133.148438 17.476562 140.574219 20.519531 C 148.199219 23.566406 154.503906 28.949219 157.757812 36.359375 C 158.367188 37.78125 158.875 39.402344 159.285156 41.027344 C 160.707031 47.324219 159.894531 52.804688 157.554688 57.070312 C 156.132812 59.605469 154.300781 61.636719 152.0625 63.261719 C 149.929688 64.886719 147.386719 66.003906 144.640625 66.609375 C 140.675781 67.523438 136.300781 67.320312 132.03125 65.800781 C 135.488281 74.226562 141.792969 94.933594 124.203125 102.957031 C 120.4375 104.679688 116.777344 105.1875 113.320312 104.882812 C 108.542969 104.375 104.269531 102.144531 100.609375 98.792969 C 97.050781 95.542969 94 91.179688 91.761719 86.203125 C 90.542969 83.464844 89.527344 80.519531 88.710938 77.472656 C 88 80.519531 86.984375 83.464844 85.660156 86.203125 C 83.425781 91.179688 80.476562 95.542969 76.816406 98.792969 C 73.152344 102.144531 68.882812 104.375 64.207031 104.882812 C 60.75 105.1875 57.085938 104.679688 53.324219 102.957031 C 35.734375 94.933594 42.039062 74.226562 45.496094 65.800781 C 41.121094 67.320312 36.75 67.523438 32.785156 66.609375 C 30.140625 66.003906 27.597656 64.886719 25.359375 63.261719 C 23.226562 61.636719 21.292969 59.605469 19.972656 57.070312 C 17.632812 52.804688 16.820312 47.324219 18.242188 41.027344 C 18.648438 39.402344 19.15625 37.78125 19.769531 36.359375 C 22.921875 28.949219 29.328125 23.566406 36.851562 20.519531 C 44.375 17.476562 53.121094 16.765625 61.257812 18.59375 C 63.492188 19.101562 65.628906 19.808594 67.765625 20.722656 C 68.375 21.027344 69.085938 21.332031 69.695312 21.636719 C 69.695312 21.636719 69.796875 21.738281 69.898438 21.738281 C 71.527344 22.753906 73.152344 23.871094 74.578125 25.089844 C 74.679688 25.191406 74.78125 25.292969 74.78125 25.394531 C 79.253906 29.554688 82.507812 35.140625 84.746094 40.722656 C 83.222656 31.484375 79.867188 20.417969 73.359375 12.09375 C 72.339844 12.601562 71.222656 12.90625 70.105469 12.90625 C 68.273438 12.90625 66.644531 12.195312 65.527344 11.078125 C 64.308594 9.863281 63.59375 8.238281 63.59375 6.511719 C 63.59375 4.683594 64.308594 3.058594 65.527344 1.941406 C 66.644531 0.726562 68.273438 0.015625 70.105469 0.015625 C 71.832031 0.015625 73.460938 0.726562 74.679688 1.941406 C 75.796875 3.058594 76.511719 4.683594 76.511719 6.511719 C 76.511719 7.832031 76.203125 9.050781 75.492188 10.066406 C 84.542969 21.332031 87.695312 37.578125 88.710938 47.828125 C 89.832031 37.578125 92.984375 21.332031 102.035156 10.066406 C 101.320312 9.050781 100.914062 7.832031 100.914062 6.511719 C 100.914062 4.683594 101.625 3.058594 102.847656 1.941406 Z M 90.441406 61.433594 C 89.628906 69.25 91.152344 77.777344 94.507812 84.988281 C 94.914062 86 95.421875 87.015625 95.933594 87.929688 C 104.980469 92.804688 111.183594 93.617188 115.558594 92.195312 C 117.796875 91.382812 119.625 89.960938 120.84375 88.234375 C 122.167969 86.507812 122.980469 84.480469 123.386719 82.347656 C 123.996094 79.707031 123.996094 77.167969 123.589844 75.648438 C 121.457031 77.371094 118.914062 78.488281 115.964844 78.792969 C 107.929688 79.707031 102.847656 75.75 100.40625 70.570312 C 99.1875 68.03125 98.574219 65.292969 98.472656 62.652344 C 98.472656 60.011719 98.984375 57.472656 100 55.648438 C 101.421875 53.007812 103.761719 51.484375 106.8125 52.09375 C 109.863281 52.09375 113.929688 55.242188 116.167969 58.894531 C 116.980469 60.214844 117.589844 61.636719 117.898438 63.058594 C 118.203125 64.582031 118.101562 66.105469 117.488281 67.523438 C 116.472656 69.757812 114.234375 71.484375 109.964844 72.09375 C 109.152344 72.195312 108.441406 71.6875 108.339844 70.875 C 108.132812 70.0625 108.746094 69.25 109.558594 69.148438 C 112.609375 68.742188 114.234375 67.625 114.746094 66.308594 C 115.152344 65.496094 115.152344 64.582031 114.949219 63.667969 C 114.746094 62.652344 114.335938 61.535156 113.625 60.417969 C 111.796875 57.472656 108.847656 55.039062 106.710938 55.039062 C 106.609375 55.039062 106.507812 55.039062 106.304688 54.9375 C 104.675781 54.632812 103.355469 55.546875 102.542969 56.96875 C 101.828125 58.488281 101.421875 60.417969 101.421875 62.652344 C 101.523438 64.785156 102.035156 67.117188 103.050781 69.25 C 105.085938 73.414062 109.152344 76.558594 115.558594 75.851562 C 120.03125 75.34375 123.285156 72.703125 125.421875 68.945312 C 126.4375 67.117188 127.148438 64.988281 127.660156 62.652344 C 127.660156 62.652344 127.660156 62.550781 127.660156 62.550781 C 127.964844 61.128906 128.167969 59.605469 128.167969 58.082031 C 128.371094 54.125 127.761719 50.0625 126.4375 46.410156 C 124.609375 41.128906 121.152344 36.867188 116.269531 35.648438 C 100.304688 31.484375 94.914062 43.261719 94.8125 43.261719 C 94.8125 43.363281 94.8125 43.363281 94.8125 43.464844 C 93.085938 48.132812 90.949219 55.953125 90.441406 61.433594 Z M 138.84375 47.222656 C 138.945312 48.03125 138.234375 48.640625 137.421875 48.640625 C 136.605469 48.640625 135.894531 48.03125 135.894531 47.222656 C 135.894531 47.121094 135.996094 16.664062 104.574219 27.628906 C 102.339844 29.65625 100.507812 32.195312 98.882812 34.734375 C 102.847656 32.296875 108.746094 30.570312 116.980469 32.804688 C 122.878906 34.328125 127.046875 39.300781 129.285156 45.394531 C 130.710938 49.351562 131.320312 53.921875 131.117188 58.183594 C 131.117188 59.199219 131.015625 60.113281 130.914062 61.128906 C 136.605469 60.011719 152.265625 55.140625 147.082031 37.070312 C 143.421875 24.175781 130.914062 22.042969 121.253906 22.449219 C 138.945312 25.292969 138.84375 47.121094 138.84375 47.222656 Z M 125.929688 73.414062 C 126.84375 75.546875 127.148438 79.300781 126.335938 83.058594 C 125.828125 85.390625 124.8125 87.929688 123.183594 90.0625 C 121.660156 92.195312 119.421875 94.023438 116.472656 94.933594 C 112.304688 96.355469 106.609375 96.050781 99.085938 92.804688 C 100.203125 94.226562 101.421875 95.542969 102.644531 96.660156 C 105.898438 99.605469 109.558594 101.535156 113.625 101.941406 C 116.574219 102.246094 119.726562 101.738281 122.980469 100.214844 C 138.03125 93.414062 132.539062 75.039062 129.386719 67.21875 C 128.980469 68.335938 128.472656 69.351562 127.964844 70.367188 C 127.355469 71.484375 126.640625 72.5 125.929688 73.414062 Z M 141.285156 23.972656 C 145.148438 26.613281 148.300781 30.46875 149.929688 36.257812 C 155.214844 54.734375 141.691406 61.230469 134.066406 63.363281 C 137.421875 64.378906 140.878906 64.480469 144.03125 63.769531 C 146.265625 63.261719 148.503906 62.246094 150.335938 60.925781 C 152.164062 59.503906 153.792969 57.777344 154.910156 55.648438 C 156.945312 51.992188 157.65625 47.222656 156.335938 41.636719 C 156.03125 40.214844 155.519531 38.792969 155.011719 37.476562 C 152.367188 31.382812 147.386719 26.816406 141.285156 23.972656 Z M 72.542969 3.972656 C 71.933594 3.363281 71.019531 2.957031 70.105469 2.957031 C 69.085938 2.957031 68.273438 3.363281 67.5625 3.972656 C 66.953125 4.582031 66.542969 5.496094 66.542969 6.511719 C 66.542969 7.425781 66.953125 8.339844 67.5625 8.949219 C 68.273438 9.558594 69.085938 9.964844 70.105469 9.964844 C 71.019531 9.964844 71.832031 9.558594 72.542969 9.050781 L 72.542969 8.949219 C 73.152344 8.339844 73.5625 7.425781 73.5625 6.511719 C 73.5625 5.496094 73.152344 4.582031 72.542969 3.972656 Z M 41.53125 47.222656 C 41.53125 48.03125 40.917969 48.640625 40.105469 48.640625 C 39.292969 48.640625 38.582031 48.03125 38.582031 47.222656 C 38.582031 47.121094 38.582031 25.292969 56.273438 22.449219 C 46.511719 22.042969 34.105469 24.175781 30.34375 37.070312 C 25.257812 55.140625 40.917969 60.011719 46.613281 61.128906 C 46.511719 60.113281 46.410156 59.199219 46.308594 58.183594 C 46.105469 53.921875 46.816406 49.351562 48.242188 45.394531 C 50.476562 39.300781 54.546875 34.328125 60.542969 32.804688 C 68.78125 30.570312 74.679688 32.296875 78.542969 34.734375 C 77.019531 32.195312 75.085938 29.65625 72.949219 27.628906 C 41.53125 16.664062 41.53125 47.121094 41.53125 47.222656 Z M 51.597656 73.414062 C 50.78125 72.5 50.171875 71.484375 49.5625 70.367188 C 48.953125 69.351562 48.445312 68.335938 48.039062 67.21875 C 44.886719 75.039062 39.394531 93.414062 54.546875 100.214844 C 57.800781 101.738281 60.953125 102.246094 63.902344 101.941406 C 67.96875 101.535156 71.628906 99.605469 74.882812 96.660156 C 76.101562 95.542969 77.324219 94.226562 78.339844 92.804688 C 70.917969 96.050781 65.222656 96.355469 61.054688 94.933594 C 58.105469 94.023438 55.867188 92.195312 54.242188 90.0625 C 52.714844 87.929688 51.699219 85.390625 51.191406 83.058594 C 50.375 79.300781 50.679688 75.546875 51.597656 73.414062 Z M 36.140625 23.972656 C 30.140625 26.816406 25.15625 31.382812 22.515625 37.476562 C 21.902344 38.792969 21.496094 40.214844 21.089844 41.636719 C 19.871094 47.222656 20.582031 51.992188 22.617188 55.648438 C 23.734375 57.777344 25.257812 59.503906 27.191406 60.925781 C 29.023438 62.246094 31.15625 63.261719 33.496094 63.769531 C 36.648438 64.480469 40.003906 64.378906 43.460938 63.363281 C 35.835938 61.230469 22.308594 54.734375 27.496094 36.257812 C 29.226562 30.46875 32.378906 26.613281 36.140625 23.972656 Z M 36.140625 23.972656 " fill-opacity="1" fill-rule="evenodd"/></g><g fill="#000000" fill-opacity="1"><g transform="translate(160.401678, 93.364708)"><g><path d="M 35.1875 -47.609375 L 48.21875 -75.640625 L 70.375 -75.640625 L 45.484375 -29.546875 L 45.484375 0 L 24.890625 0 L 24.890625 -28.921875 L 0 -75.640625 L 22.25 -75.640625 Z M 35.1875 -47.609375 "/></g></g></g><g fill="#000000" fill-opacity="1"><g transform="translate(230.771994, 93.364708)"><g><path d="M 8.171875 -75.640625 L 34.5625 -75.640625 C 44.84375 -75.640625 52.472656 -74.113281 57.453125 -71.0625 C 62.441406 -68.007812 64.9375 -63.257812 64.9375 -56.8125 C 64.9375 -52.570312 63.847656 -48.953125 61.671875 -45.953125 C 59.503906 -42.953125 56.644531 -41.019531 53.09375 -40.15625 L 53.09375 -39.640625 C 57.78125 -38.390625 61.175781 -36.316406 63.28125 -33.421875 C 65.382812 -30.523438 66.4375 -26.765625 66.4375 -22.140625 C 66.4375 -15.273438 63.859375 -9.867188 58.703125 -5.921875 C 53.546875 -1.972656 46.515625 0 37.609375 0 L 8.171875 0 Z M 28.609375 -46.625 L 34.765625 -46.625 C 37.703125 -46.625 39.972656 -47.222656 41.578125 -48.421875 C 43.179688 -49.628906 43.984375 -51.425781 43.984375 -53.8125 C 43.984375 -58.050781 40.773438 -60.171875 34.359375 -60.171875 L 28.609375 -60.171875 Z M 28.609375 -31.671875 L 28.609375 -15.78125 L 35.8125 -15.78125 C 42.1875 -15.78125 45.375 -18.472656 45.375 -23.859375 C 45.375 -26.367188 44.519531 -28.296875 42.8125 -29.640625 C 41.101562 -30.992188 38.628906 -31.671875 35.390625 -31.671875 Z M 28.609375 -31.671875 "/></g></g></g><g fill="#000000" fill-opacity="1"><g transform="translate(302.177168, 93.364708)"><g><path d="M 72.796875 0 L 49.71875 0 L 34.765625 -28.921875 L 28.71875 -25.296875 L 28.71875 0 L 8.171875 0 L 8.171875 -75.640625 L 28.71875 -75.640625 L 28.71875 -42.796875 C 29.75 -44.828125 31.835938 -48.050781 34.984375 -52.46875 L 50.859375 -75.640625 L 73.21875 -75.640625 L 49.359375 -41.75 Z M 72.796875 0 "/></g></g></g></svg>